<svg width="250" height="248" viewBox="0 0 250 248" fill="none" xmlns="http://www.w3.org/2000/svg">
      <path fill-rule="evenodd" clip-rule="evenodd" fill="black" d="
            M176.5 18.4996C196.5 42.0006 183.833 48.3331 176.5 50.4998C204.9 59.6998 227.1 83.4998 235.5 98.4998C249.5 123.5 249.5 145 249.5 163.5C247.5 189.5 227.833 211.166 217 220.5V224C218 224 219.9 225.5 219.5 231.5C219.1 237.5 211.333 245 207.5 248H42C38.1667 245 30.4 237.5 30 231.5C29.6 225.5 31.5 224 32.5 224V220.5C21.6667 211.166 2 189.5 0 163.5C0 145 0 123.5 14 98.4998C22.4 83.4998 44.6 59.6998 73 50.4998C65.6667 48.3331 53 42.0006 73 18.4996C88.769 -0.0297909 115.167 0.99955 125 0.99955C134.833 0.99955 160.731 -0.0297909 176.5 18.4996Z
            M234.006 160.474C231.241 177.748 222.79 194.011 209.628 207.412C191.918 198.151 160.636 192 125 192C89.7818 192 58.8158 198.008 41 207.087C27.3204 193.599 18.9919 178.529 16.0691 160.934C13.1463 143.339 16.2463 125.405 25.0022 109.252C33.7581 93.1003 47.8035 79.4069 65.4764 69.7924C83.1492 60.1778 103.71 55.0447 124.725 55.0003C145.741 54.9559 166.331 60.0021 184.061 69.5419C201.79 79.0817 215.916 92.7156 224.768 108.831C233.619 124.945 236.825 142.867 234.006 160.474Z
            M25 148C25 171.461 31.4554 185.395 44.5256 192.946C37.2055 180.673 33 166.328 33 151C33 118.146 52.322 89.8039 80.2224 76.7187C48.6313 83.9458 25 113.115 25 148Z
            M225 148C225 171.461 218.545 185.395 205.474 192.946C212.794 180.673 217 166.328 217 151C217 118.146 197.678 89.8039 169.778 76.7187C201.369 83.9458 225 113.115 225 148Z
            M58 125C58 94.9005 81.9528 72 111.5 72C111.5 72 102 79.5 99.5 103.502L99.5553 173.292L99.5552 173.322L99.5553 173.424C99.7253 175.195 100.284 176.856 101.177 178.386C104.451 180.757 107.5 184 110.5 186C89.3001 186 74.1667 190.167 69.5 192.5C68.5 193 64.5 193 62 193C59.5 193 57.9999 186 58 182V125Z
            M189 125C189 94.9005 165.047 72 135.5 72C135.5 72 145 79.5 147.5 103.502L147.445 173.292L147.445 173.322L147.445 173.424C147.275 175.195 146.716 176.856 145.823 178.386C142.549 180.757 139.5 184 136.5 186C157.7 186 172.833 190.167 177.5 192.5C178.5 193 182.5 193 185 193C187.5 193 189 186 189 182V125Z
            M125.5 220C83.7974 220 49.9904 227.552 49.9872 231.419C57.9259 228.314 88.7211 225.999 125.5 225.999C162.279 225.999 193.074 228.314 201.013 231.418C201.01 227.552 167.203 220 125.5 220Z
            " />
      </svg>
